HIERARCHY
ROOT Bip001_Pelvis
{
  OFFSET 34.4345 95.6767 -26.8758
  CHANNELS 6 Xposition Yposition Zposition Zrotation Xrotation Yrotation
  JOINT Bip001_Spine
  {
    OFFSET 1.4188e-005 10.2191 -0.0116013
    CHANNELS 3 Zrotation Xrotation Yrotation
    JOINT Bip001_L_Thigh
    {
      OFFSET 11.0458 -10.2192 0.0116197
      CHANNELS 3 Zrotation Xrotation Yrotation
      JOINT Bip001_L_Calf
      {
        OFFSET -0.707118 -44.0221 0.360014
        CHANNELS 3 Zrotation Xrotation Yrotation
        JOINT Bip001_L_Foot
        {
          OFFSET -0.651902 -40.5938 -3.56146
          CHANNELS 3 Zrotation Xrotation Yrotation
          JOINT Bip001_L_Toe0
          {
            OFFSET 0.0530839 -10.2181 13.1504
            CHANNELS 3 Zrotation Xrotation Yrotation
            End Site
            {
              OFFSET -1.02532e-005 0 7.55606
            }
          }
        }
      }
    }
    JOINT Bip001_R_Thigh
    {
      OFFSET -11.0458 -10.2191 0.0115893
      CHANNELS 3 Zrotation Xrotation Yrotation
      JOINT Bip001_R_Calf
      {
        OFFSET 0.706994 -44.0221 0.35984
        CHANNELS 3 Zrotation Xrotation Yrotation
        JOINT Bip001_R_Foot
        {
          OFFSET 0.651786 -40.5938 -3.5613
          CHANNELS 3 Zrotation Xrotation Yrotation
          JOINT Bip001_R_Toe0
          {
            OFFSET -0.0531479 -10.2181 13.1504
            CHANNELS 3 Zrotation Xrotation Yrotation
            End Site
            {
              OFFSET -1.02894e-005 0 7.55606
            }
          }
        }
      }
    }
    JOINT Bip001_Spine1
    {
      OFFSET 1.87041e-005 14.5736 1.08638
      CHANNELS 3 Zrotation Xrotation Yrotation
      JOINT Bip001_Spine2
      {
        OFFSET 2.24614e-005 14.5058 -1.69078
        CHANNELS 3 Zrotation Xrotation Yrotation
        JOINT Bip001_Neck
        {
          OFFSET 2.20278e-005 15.3945 -0.489414
          CHANNELS 3 Zrotation Xrotation Yrotation
          JOINT Bip001_L_Clavicle
          {
            OFFSET 6.06036 -0.000579998 0.00836775
            CHANNELS 3 Zrotation Xrotation Yrotation
            JOINT Bip001_L_UpperArm
            {
              OFFSET 11.5509 -0.0600302 0.00193952
              CHANNELS 3 Zrotation Xrotation Yrotation
              JOINT Bip001_L_Forearm
              {
                OFFSET 25.9523 0.0806089 -2.15551
                CHANNELS 3 Zrotation Xrotation Yrotation
                JOINT Bip001_L_Hand
                {
                  OFFSET 32.2475 0.153767 1.63968
                  CHANNELS 3 Zrotation Xrotation Yrotation
                  JOINT Bip001_L_Finger0
                  {
                    OFFSET 6.04639 -2.20976 5.90322
                    CHANNELS 3 Zrotation Xrotation Yrotation
                    End Site
                    {
                      OFFSET 4.22375 -1.43895 0.606485
                    }
                  }
                  JOINT Bip001_L_Finger1
                  {
                    OFFSET 11.0826 -0.704819 -0.198153
                    CHANNELS 3 Zrotation Xrotation Yrotation
                    End Site
                    {
                      OFFSET 6.20027 -0.397518 -0.0787166
                    }
                  }
                }
              }
            }
          }
          JOINT Bip001_R_Clavicle
          {
            OFFSET -6.06037 -0.000563197 0.00835105
            CHANNELS 3 Zrotation Xrotation Yrotation
            JOINT Bip001_R_UpperArm
            {
              OFFSET -11.5509 -0.0599978 0.00190698
              CHANNELS 3 Zrotation Xrotation Yrotation
              JOINT Bip001_R_Forearm
              {
                OFFSET -25.9523 0.0806822 -2.15589
                CHANNELS 3 Zrotation Xrotation Yrotation
                JOINT Bip001_R_Hand
                {
                  OFFSET -32.2475 0.153859 1.63989
                  CHANNELS 3 Zrotation Xrotation Yrotation
                  JOINT Bip001_R_Finger0
                  {
                    OFFSET -6.04641 -2.20976 5.90317
                    CHANNELS 3 Zrotation Xrotation Yrotation
                    End Site
                    {
                      OFFSET -4.22376 -1.43895 0.60647
                    }
                  }
                  JOINT Bip001_R_Finger1
                  {
                    OFFSET -11.0826 -0.704794 -0.198182
                    CHANNELS 3 Zrotation Xrotation Yrotation
                    End Site
                    {
                      OFFSET -6.20028 -0.397504 -0.0787333
                    }
                  }
                }
              }
            }
          }
          JOINT Bip001_Head
          {
            OFFSET 1.09673e-005 11.2744 2.05948
            CHANNELS 3 Zrotation Xrotation Yrotation
            End Site
            {
              OFFSET 2.89576e-005 20.8808 -2.77728e-005
            }
          }
        }
      }
    }
  }
}
MOTION
Frames:	5
Frame Time:	0.04
32.7996 95.7927 -28.5119 0.742531 -1.18457 -5.4922 0.0131158 2.61646 0.535656 3.92071 -0.943224 9.58711 1.28877 5.55585 -1.72405 0.603176 -3.36418 -0.010797 1.13731 -5.35831 -0.411747 -5.69115 -4.37765 -1.47224 1.62768 10.8904 -0.0821457 -4.67353 -9.57998 3.59717 2.07463 -7.17468 2.31071 -0.00500031 5.2329 1.07254 -0.00500004 5.2329 1.07254 3.14874 -11.1475 0.51547 -25.0909 14.4748 -7.09944 -48.7376 36.2153 -5.7608 10.6826 0.846177 -23.1448 8.83811 -0.505431 -8.67229 -3.18055e-015 -6.36111e-015 1.59028e-015 -6.36111e-015 -3.18056e-015 -0 28.0186 13.9327 2.58764 61.7056 40.0095 -12.368 -26.9727 9.75605 16.9052 4.06223 -6.19589 7.10328 -3.18055e-015 3.18055e-015 1.59028e-015 -4.77083e-015 3.18056e-015 1.59028e-015 -0.268747 2.91838 1.17491 
32.8189 95.7968 -28.5025 0.761286 -1.19298 -5.28324 -0.0015336 2.63053 0.536162 3.95927 -0.969019 9.42061 1.16385 5.53103 -1.7772 0.872327 -3.21489 -0.0107954 1.21077 -5.45428 -0.486281 -5.65788 -4.40955 -1.48502 1.57667 11.0163 -0.097678 -4.73911 -9.56345 3.39563 2.07463 -7.17468 2.31071 -0.0277765 5.26098 1.07409 -0.0277775 5.26102 1.07409 3.12417 -11.1289 0.528507 -25.0968 14.503 -7.23507 -48.4253 36.6033 -6.05537 10.3488 0.714429 -22.8312 8.93728 -0.565843 -8.81888 -0 0 6.36111e-015 -0 0 3.18055e-015 27.6941 13.8769 2.56464 61.461 39.8055 -11.97 -27.6519 10.4903 17.8092 2.66023 -5.98791 6.83571 -3.18055e-015 3.18055e-015 -0 -1.59028e-015 3.18056e-015 -0 -0.483918 2.67801 1.24831 
32.8699 95.803 -28.4041 0.904504 -1.28824 -5.28332 -0.0801216 2.63075 0.61196 3.81626 -0.637847 9.55171 1.17687 5.12119 -1.88861 0.822996 -3.08099 -0.0109128 1.2487 -5.4094 -0.532228 -5.75181 -4.33508 -1.5839 1.5219 11.171 -0.0907595 -4.75276 -9.65347 3.44457 2.07548 -7.19455 2.31081 -0.18787 5.26053 1.22821 -0.188334 5.26052 1.22887 3.37926 -10.8966 0.365861 -25.345 14.2229 -7.21565 -48.1317 37.271 -6.38751 10.3594 1.21635 -22.1264 8.57547 -0.220217 -8.33319 3.18055e-015 3.18055e-015 -1.59028e-015 3.18055e-015 0 -1.59028e-015 27.0779 13.7611 2.90302 61.3371 39.3399 -11.2795 -27.7727 10.1779 18.0039 2.57256 -5.63519 6.35331 1.59028e-015 -3.18055e-015 7.95139e-016 8.82782e-032 -3.18056e-015 1.59028e-015 -1.02614 2.35618 1.27286 
32.8684 95.8565 -28.3177 0.817322 -1.22317 -4.97619 -0.108955 2.58208 0.588187 3.95584 -0.52381 7.796 1.08564 4.87363 0.0163152 0.0375612 -3.28618 0.0115316 1.2141 -4.92838 -0.590511 -5.59438 -3.92066 -2.18343 1.3843 10.5478 0.0133608 -4.70407 -9.41792 3.68653 2.08074 -7.23189 2.3332 -0.24455 5.16292 1.183 -0.244738 5.16293 1.18304 3.44374 -10.6886 0.352986 -25.491 13.9587 -7.00507 -48.1508 37.7425 -6.27619 10.7182 1.9668 -21.5508 7.92943 0.269784 -7.79401 -3.18055e-015 -6.36111e-015 -0 -3.18055e-015 -6.36111e-015 1.59028e-015 26.7473 13.8104 3.7095 61.621 39.8289 -11.2046 -27.6661 10.3155 17.4527 1.93445 -6.32903 6.0033 -1.59028e-015 0 7.95139e-016 -3.18055e-015 3.18056e-015 7.95139e-016 -1.31584 2.18775 1.35927 
32.8972 95.8728 -28.2535 0.801041 -1.0642 -4.62796 -0.116799 2.50757 0.540501 3.95243 -0.644025 8.96542 1.27469 4.86898 -1.27008 -0.0265458 -3.27501 0.0116535 1.36059 -4.92963 -0.766254 -5.52035 -3.77834 -2.6843 1.22978 10.3118 0.0761712 -4.65624 -9.35744 3.85376 2.07895 -7.19466 2.31427 -0.259739 5.01388 1.08799 -0.259386 5.0139 1.08792 2.95947 -10.4864 0.456166 -25.3006 13.7439 -6.74729 -48.2368 38.1037 -5.8797 11.0841 2.66763 -21.1455 7.41861 0.593716 -7.15379 3.18055e-015 0 -0 -0 0 1.59028e-015 26.9107 13.8845 4.68624 62.4773 40.8717 -11.8254 -27.5123 9.07342 16.689 1.97839 -6.42949 5.70181 1.59028e-015 0 3.18055e-015 -2.64834e-031 6.36111e-015 2.38542e-015 -1.24451 2.09923 1.34342 
